<svg width="24" height="43" viewBox="0 0 24 43" fill="none" xmlns="http://www.w3.org/2000/svg">
<path d="M24 0H0V43H24V0Z" fill="#E95420"/>
<path d="M15.2279 34.4536C16.4833 34.4536 17.501 35.4713 17.501 36.7267C17.501 37.9822 16.4833 38.9999 15.2279 38.9999C13.9724 38.9999 12.9547 37.9822 12.9547 36.7267C12.9547 35.4713 13.9724 34.4536 15.2279 34.4536ZM7.62466 33.8349C8.38675 35.313 9.7729 36.3702 11.3999 36.7142C11.5833 36.7534 11.7703 36.7838 11.9575 36.8046C11.9727 37.4926 12.2057 38.158 12.6231 38.7051C12.0806 38.7084 11.5393 38.6527 11.0089 38.539C8.6009 38.0293 6.60393 36.3556 5.68109 34.0738C6.33815 34.1944 7.01638 34.1111 7.62466 33.8349ZM18.7637 27.1659C20.5403 29.8489 20.39 33.3701 18.391 35.8918C18.2162 35.2267 17.8354 34.6339 17.3033 34.1982C18.3414 32.516 18.4107 30.4098 17.4854 28.663C18.0549 28.3068 18.5012 27.7842 18.7637 27.1659ZM6.27315 28.5909C7.52858 28.5909 8.5463 29.6086 8.5463 30.864C8.5463 32.1194 7.52858 33.1372 6.27315 33.1372C5.01772 33.1372 4 32.1194 4 30.864C4 29.6086 5.01772 28.5909 6.27315 28.5909ZM15.74 23.6064C16.9954 23.6064 18.0131 24.6242 18.0131 25.8796C18.0131 27.135 16.9954 28.1527 15.74 28.1527C14.4846 28.1527 13.4668 27.135 13.4668 25.8796C13.4668 24.6242 14.4846 23.6064 15.74 23.6064ZM13.1485 23.8593C12.7362 24.3893 12.4956 25.0325 12.4588 25.7028C10.6731 25.7332 9.01141 26.6219 7.99481 28.0903C7.47689 27.7698 6.87998 27.5998 6.27093 27.5994C6.21318 27.5994 6.15545 27.6009 6.09776 27.6041C7.51235 25.108 10.2899 23.633 13.1485 23.8593Z" fill="white"/>
</svg>
