<?xml version="1.0" encoding="UTF-8"?>
<svg version="1.1" xmlns="http://www.w3.org/2000/svg" width="440" height="152">
<path d="M0 0 C0 4.29 0 8.58 0 13 C7.26 13 14.52 13 22 13 C22 9.37 22 5.74 22 2 C23.98 1.34 25.96 0.68 28 0 C28 4.29 28 8.58 28 13 C31.63 13 35.26 13 39 13 C39 14.98 39 16.96 39 19 C35.37 19 31.74 19 28 19 C28.13810905 23.47944035 28.28677416 27.95846783 28.4375 32.4375 C28.47681641 33.71689453 28.51613281 34.99628906 28.55664062 36.31445312 C28.59853516 37.52939453 28.64042969 38.74433594 28.68359375 39.99609375 C28.73858032 41.68496704 28.73858032 41.68496704 28.79467773 43.40795898 C28.71218045 45.92853441 28.71218045 45.92853441 30 47 C31.51469448 47.23192865 33.03754562 47.41215238 34.5625 47.5625 C35.38878906 47.64628906 36.21507812 47.73007813 37.06640625 47.81640625 C38.02353516 47.90728516 38.02353516 47.90728516 39 48 C39 49.65 39 51.3 39 53 C37.08458862 53.10841951 35.16740227 53.18578079 33.25 53.25 C32.18265625 53.29640625 31.1153125 53.3428125 30.015625 53.390625 C26.32566594 52.91265103 25.27373274 51.86872822 23 49 C21.59087904 46.18175808 21.88816447 43.82748718 21.90234375 40.6796875 C21.90556641 39.42285156 21.90878906 38.16601562 21.91210938 36.87109375 C21.92467773 34.89302734 21.92467773 34.89302734 21.9375 32.875 C21.94251511 31.53515789 21.94707799 30.195314 21.95117188 28.85546875 C21.96298905 25.57029343 21.98092499 22.28514119 22 19 C14.74 19 7.48 19 0 19 C0.1400749 23.47941636 0.28677324 27.95844063 0.4375 32.4375 C0.47681641 33.71689453 0.51613281 34.99628906 0.55664062 36.31445312 C0.61948242 38.13686523 0.61948242 38.13686523 0.68359375 39.99609375 C0.72025146 41.12200928 0.75690918 42.2479248 0.79467773 43.40795898 C0.71218045 45.92853441 0.71218045 45.92853441 2 47 C3.51469448 47.23192865 5.03754562 47.41215238 6.5625 47.5625 C7.38878906 47.64628906 8.21507812 47.73007813 9.06640625 47.81640625 C10.02353516 47.90728516 10.02353516 47.90728516 11 48 C11 49.65 11 51.3 11 53 C9.10705765 53.16302853 7.21001605 53.27886529 5.3125 53.375 C4.25675781 53.44460937 3.20101563 53.51421875 2.11328125 53.5859375 C-1.28218753 52.94689068 -3.02109248 52.03843394 -5.08666992 49.22412109 C-7.21836034 44.033076 -6.49194771 38.12990357 -6.3125 32.625 C-6.28994141 31.31660156 -6.26738281 30.00820312 -6.24414062 28.66015625 C-6.18535914 25.43893113 -6.10322731 22.2200568 -6 19 C-7.98 19 -9.96 19 -12 19 C-12 17.02 -12 15.04 -12 13 C-10.02 13 -8.04 13 -6 13 C-6.04640625 12.31292969 -6.0928125 11.62585937 -6.140625 10.91796875 C-6.17671875 10.01691406 -6.2128125 9.11585937 -6.25 8.1875 C-6.29640625 7.29417969 -6.3428125 6.40085937 -6.390625 5.48046875 C-6 3 -6 3 -4.109375 1.17578125 C-2 0 -2 0 0 0 Z " fill="#FFFFFF" transform="translate(289,48)"/>
<path d="M0 0 C2.43972223 1.69522968 4.36412145 3.25558665 5.70703125 5.94140625 C6.18914062 5.51988281 6.67125 5.09835938 7.16796875 4.6640625 C7.79960937 4.11621094 8.43125 3.56835938 9.08203125 3.00390625 C9.70851562 2.45863281 10.335 1.91335937 10.98046875 1.3515625 C15.48954195 -2.33118733 21.16070674 -1.58128402 26.70703125 -1.05859375 C31.18573781 1.10078263 33.88901313 3.87093564 36.70703125 7.94140625 C37.82614837 11.29875762 37.82068711 13.82346011 37.8046875 17.359375 C37.80146484 18.61298828 37.79824219 19.86660156 37.79492188 21.15820312 C37.78235352 23.12370117 37.78235352 23.12370117 37.76953125 25.12890625 C37.76451442 26.46419106 37.75995184 27.79947766 37.75585938 29.13476562 C37.7440582 32.40369098 37.72759422 35.67252616 37.70703125 38.94140625 C35.72703125 38.94140625 33.74703125 38.94140625 31.70703125 38.94140625 C31.70292236 38.11938721 31.69881348 37.29736816 31.69458008 36.45043945 C31.66163882 32.71753583 31.59099021 28.98626291 31.51953125 25.25390625 C31.51373047 23.96033203 31.50792969 22.66675781 31.50195312 21.33398438 C31.47294922 20.08681641 31.44394531 18.83964844 31.4140625 17.5546875 C31.39835205 16.40782471 31.3826416 15.26096191 31.36645508 14.0793457 C30.51771795 10.04053849 28.84306025 8.53476924 25.70703125 5.94140625 C21.99498038 4.47908318 18.62021859 4.57613131 14.89453125 6.06640625 C11.58725964 8.90121049 9.91039518 11.55184843 9.2746582 15.89575195 C9.24847412 16.95882568 9.22229004 18.02189941 9.1953125 19.1171875 C9.15986328 20.27412109 9.12441406 21.43105469 9.08789062 22.62304688 C9.06533203 23.82123047 9.04277344 25.01941406 9.01953125 26.25390625 C8.98537109 27.47142578 8.95121094 28.68894531 8.91601562 29.94335938 C8.83368308 32.94261639 8.76448204 35.94158639 8.70703125 38.94140625 C7.05703125 38.94140625 5.40703125 38.94140625 3.70703125 38.94140625 C3.69244873 38.25103271 3.67786621 37.56065918 3.6628418 36.84936523 C3.58792508 33.69200965 3.49140908 30.53566124 3.39453125 27.37890625 C3.37197266 26.29287109 3.34941406 25.20683594 3.32617188 24.08789062 C3.12299691 18.01111203 2.75173201 13.2641565 -0.29296875 7.94140625 C-3.70041962 5.46326016 -5.64353782 4.94140625 -9.85546875 4.94140625 C-13.93290004 6.12756808 -15.60849573 7.7042476 -18.29296875 10.94140625 C-19.6340328 13.62353435 -19.50747294 15.82538657 -19.609375 18.82421875 C-19.65126953 19.99082031 -19.69316406 21.15742187 -19.73632812 22.359375 C-19.79530273 24.19435547 -19.79530273 24.19435547 -19.85546875 26.06640625 C-19.89865234 27.29746094 -19.94183594 28.52851562 -19.98632812 29.796875 C-20.09265579 32.84493478 -20.19468656 35.89307815 -20.29296875 38.94140625 C-21.94296875 38.94140625 -23.59296875 38.94140625 -25.29296875 38.94140625 C-25.39254247 34.93969157 -25.46476483 30.93846583 -25.51269531 26.93579102 C-25.53269503 25.57693912 -25.55990451 24.21817201 -25.59472656 22.85961914 C-25.94665673 8.76688617 -25.94665673 8.76688617 -21.29296875 2.94140625 C-15.3467437 -1.8899016 -7.1569565 -3.30414857 0 0 Z " fill="#FFFFFF" transform="translate(179.29296875,62.05859375)"/>
<path d="M0 0 C9.73158084 1.94631617 16.28757478 6.92247565 22 15 C27.07641794 23.81770862 27.93654955 34.12507558 26 44 C24.31727014 43.37498605 22.65369357 42.69822617 21 42 C20.0925 41.690625 19.185 41.38125 18.25 41.0625 C14.87814307 37.97163115 15.25496394 34.71830257 15.04296875 30.30078125 C15.02878906 29.54152344 15.01460937 28.78226563 15 28 C9.883654 29.84939479 5.59060413 32.70359812 1.03515625 35.63671875 C-2.55245972 37.24814471 -4.26459788 37.04676276 -8 36 C-8.66 35.67 -9.32 35.34 -10 35 C-10 32.69 -10 30.38 -10 28 C-4.06 24.7 1.88 21.4 8 18 C6.86516076 14.59548229 6.44722063 14.3994436 3.4375 12.8125 C2.303125 12.214375 1.16875 11.61625 0 11 C0 7.37 0 3.74 0 0 Z " fill="#FFFFFF" transform="translate(46,72)"/>
<path d="M0 0 C4.74936535 2.7445103 8.91481569 7.08897577 10.625 12.375 C10.625 15.015 10.625 17.655 10.625 20.375 C-1.255 20.375 -13.135 20.375 -25.375 20.375 C-21.33161663 28.98774176 -21.33161663 28.98774176 -14.375 32.375 C-8.61311388 33.86882233 -4.54983649 33.07543191 0.625 30.375 C1.285 29.715 1.945 29.055 2.625 28.375 C5.75 28.75 5.75 28.75 8.625 29.375 C7.7120369 32.31128672 7.06962798 34.02260405 4.62890625 35.95703125 C-2.65129064 39.62625048 -8.87105165 40.7682951 -16.859375 38.74609375 C-22.82404028 36.51434818 -26.23059822 32.84401309 -29.375 27.375 C-31.35284396 21.44146813 -31.38331235 14.73646881 -28.75 9 C-22.85519212 -1.16489839 -10.73268311 -4.88774942 0 0 Z M-22.875 9.9375 C-24.63704871 12.32381861 -24.63704871 12.32381861 -24.375 15.375 C-14.805 15.375 -5.235 15.375 4.625 15.375 C3.53327352 9.91636762 2.81475005 8.85351436 -1.28515625 5.6171875 C-9.17788761 0.92580699 -16.85598717 3.76801184 -22.875 9.9375 Z " fill="#FFFFFF" transform="translate(364.375,62.625)"/>
<path d="M0 0 C0.47568574 3.77245218 0.71310377 7.2496024 0 11 C-1.92212894 12.95222939 -3.68012355 13.94220942 -6.15234375 15.09765625 C-8.18161444 15.85702046 -8.18161444 15.85702046 -9 18 C-8.32582031 18.24492188 -7.65164062 18.48984375 -6.95703125 18.7421875 C-3.35909286 20.27261836 -0.06123937 22.15843308 3.3125 24.125 C3.95767578 24.49753906 4.60285156 24.87007812 5.26757812 25.25390625 C6.84675945 26.16632213 8.42361864 27.08275509 10 28 C10.1875 31.375 10.1875 31.375 10 35 C7 37 7 37 4.3359375 36.91015625 C-0.00516622 35.72575676 -3.51843485 33.71447743 -7.375 31.4375 C-8.11105469 31.01275391 -8.84710938 30.58800781 -9.60546875 30.15039062 C-11.40839699 29.10843859 -13.20487053 28.05533146 -15 27 C-14.96777344 27.80824219 -14.93554688 28.61648437 -14.90234375 29.44921875 C-14.93915509 32.83995248 -15.10504947 35.72277638 -16 39 C-18.70554259 41.4962459 -21.54244096 42.79858555 -25 44 C-27.28233558 41.71766442 -26.31172369 35.89194425 -26.31469727 32.71484375 C-26.13292751 22.42387924 -22.36054861 14.27722164 -15 7 C-5.32352941 0 -5.32352941 0 0 0 Z " fill="#FFFFFF" transform="translate(108,72)"/>
<path d="M0 0 C1.90594488 1.19588698 3.6623025 2.42288806 5.37890625 3.875 C5.70890625 2.225 6.03890625 0.575 6.37890625 -1.125 C8.02890625 -1.125 9.67890625 -1.125 11.37890625 -1.125 C11.37890625 12.075 11.37890625 25.275 11.37890625 38.875 C9.72890625 38.875 8.07890625 38.875 6.37890625 38.875 C5.88390625 36.895 5.88390625 36.895 5.37890625 34.875 C4.45078125 35.514375 3.52265625 36.15375 2.56640625 36.8125 C-3.02093056 40.42783558 -8.12604226 40.50584631 -14.62109375 39.875 C-20.5450866 38.13264916 -24.19550975 34.91262353 -27.62109375 29.875 C-30.48783304 23.73198723 -30.48479008 17.55700438 -28.43359375 11.1875 C-22.50184759 0.34672253 -12.1640943 -5.22095255 0 0 Z M-22.05859375 10.6875 C-24.52181727 15.71247598 -25.17090405 19.10338905 -23.49609375 24.5 C-21.15574216 28.71263286 -19.15294227 31.81481869 -14.578125 33.73046875 C-9.6667504 35.12526532 -6.01141214 35.03226098 -1.34375 32.92578125 C2.77378313 30.41417941 5.22867218 26.47593628 6.37890625 21.875 C6.53430262 17.22174201 6.09391871 13.25454031 3.19140625 9.5 C-0.49189814 6.06224924 -3.48903414 4.19944385 -8.49609375 3.4375 C-14.19437231 4.235259 -18.2853137 6.33371533 -22.05859375 10.6875 Z " fill="#FFFFFF" transform="translate(255.62109375,62.125)"/>
<path d="M0 0 C2.3125 1.25 2.3125 1.25 3.3125 2.25 C3.46964654 3.88256758 3.56335414 5.52135338 3.62890625 7.16015625 C3.67080078 8.14951172 3.71269531 9.13886719 3.75585938 10.15820312 C3.79517578 11.19912109 3.83449219 12.24003906 3.875 13.3125 C3.91818359 14.35728516 3.96136719 15.40207031 4.00585938 16.47851562 C4.11231225 19.06886884 4.2143276 21.65932186 4.3125 24.25 C4.9302832 23.9605249 5.54806641 23.6710498 6.18457031 23.37280273 C6.99506836 23.00098877 7.80556641 22.6291748 8.640625 22.24609375 C9.4440332 21.87411865 10.24744141 21.50214355 11.07519531 21.11889648 C13.95293635 20.00127532 15.46680104 20.0642921 18.3125 21.25 C21.125 22.8125 21.125 22.8125 23.3125 24.25 C21.93990684 27.54142237 20.60989691 29.04419953 17.5625 30.875 C16.90765625 31.27976563 16.2528125 31.68453125 15.578125 32.1015625 C10.09525976 34.88080798 5.09512998 35.60991183 -1 35.5625 C-1.754021 35.55686035 -2.50804199 35.5512207 -3.28491211 35.54541016 C-13.04296511 35.33266038 -19.23247151 32.5268496 -26.6875 26.25 C-25.6875 23.25 -25.6875 23.25 -22.9375 21.5 C-18.04172265 19.61700871 -15.21481894 21.03705905 -10.5234375 22.8046875 C-9.80462402 23.07522949 -9.08581055 23.34577148 -8.34521484 23.62451172 C-7.79816895 23.83092285 -7.25112305 24.03733398 -6.6875 24.25 C-6.70844727 23.59926514 -6.72939453 22.94853027 -6.75097656 22.27807617 C-6.83409338 19.33137445 -6.88614484 16.3849191 -6.9375 13.4375 C-6.97101563 12.41333984 -7.00453125 11.38917969 -7.0390625 10.33398438 C-7.05195312 9.35107422 -7.06484375 8.36816406 -7.078125 7.35546875 C-7.09907227 6.44949951 -7.12001953 5.54353027 -7.14160156 4.61010742 C-6.6875 2.25 -6.6875 2.25 -4.83105469 0.3840332 C-2.6875 -0.75 -2.6875 -0.75 0 0 Z " fill="#FFFFFF" transform="translate(78.6875,36.75)"/>
<path d="M0 0 C1.22589844 0.01353516 1.22589844 0.01353516 2.4765625 0.02734375 C3.41628906 0.04474609 3.41628906 0.04474609 4.375 0.0625 C4.375 1.7125 4.375 3.3625 4.375 5.0625 C3.68792969 5.22105469 3.00085938 5.37960938 2.29296875 5.54296875 C1.39191406 5.77628906 0.49085938 6.00960937 -0.4375 6.25 C-1.33082031 6.47042969 -2.22414063 6.69085938 -3.14453125 6.91796875 C-6.40063985 8.42039366 -7.06534371 9.85912084 -8.625 13.0625 C-9.12367358 16.14868895 -9.12367358 16.14868895 -9.13671875 19.45703125 C-9.17216797 20.65908203 -9.20761719 21.86113281 -9.24414062 23.09960938 C-9.27797852 24.96842773 -9.27797852 24.96842773 -9.3125 26.875 C-9.34666016 28.14021484 -9.38082031 29.40542969 -9.41601562 30.70898438 C-9.49837129 33.82673445 -9.56756529 36.94420759 -9.625 40.0625 C-11.605 40.0625 -13.585 40.0625 -15.625 40.0625 C-15.71255672 35.70846135 -15.76557969 31.35465123 -15.8125 27 C-15.83763672 25.77087891 -15.86277344 24.54175781 -15.88867188 23.27539062 C-15.99691638 9.8891532 -15.99691638 9.8891532 -11.08984375 4.3203125 C-7.04200239 1.31807722 -5.0079182 -0.07154169 0 0 Z " fill="#FFFFFF" transform="translate(399.625,60.9375)"/>
</svg>
