<?xml version="1.0" encoding="UTF-8"?>
<!DOCTYPE svg PUBLIC "-//W3C//DTD SVG 1.1//EN" "http://www.w3.org/Graphics/SVG/1.1/DTD/svg11.dtd">
<!-- Creator: CorelDRAW -->
<svg xmlns="http://www.w3.org/2000/svg" xml:space="preserve" width="2048px" height="2048px" style="shape-rendering:geometricPrecision; text-rendering:geometricPrecision; image-rendering:optimizeQuality; fill-rule:evenodd; clip-rule:evenodd"
viewBox="0 0 2048 2048"
 xmlns:xlink="http://www.w3.org/1999/xlink">
 <defs>
  <style type="text/css">
   <![CDATA[
    .fil5 {fill:none}
    .fil2 {fill:#5D4037}
    .fil1 {fill:#6D4C41}
    .fil4 {fill:#D7CCC8}
    .fil0 {fill:#5D4037;fill-rule:nonzero}
    .fil3 {fill:#FF6F00;fill-rule:nonzero}
   ]]>
  </style>
 </defs>
 <g id="Layer_x0020_1">
  <metadata id="CorelCorpID_0Corel-Layer"/>
  <g id="_366664712">
   <polygon id="_366666536" class="fil0" points="1393.26,1348.03 1608.67,1563.44 1563.44,1608.67 1348.03,1393.26 "/>
   <polygon id="_366665144" class="fil0" points="699.158,1393.26 483.746,1608.67 438.519,1563.44 653.931,1348.03 "/>
   <polygon id="_366665720" class="fil0" points="1348.03,653.931 1563.44,438.519 1608.67,483.746 1393.26,699.158 "/>
   <polygon id="_366665192" class="fil0" points="653.931,699.158 438.519,483.746 483.746,438.519 699.158,653.931 "/>
   <polygon id="_366665096" class="fil1" points="643.473,643.473 1403.71,643.473 1403.71,1403.71 643.473,1403.71 "/>
   <circle id="_366665408" class="fil2" transform="matrix(0.973346 0.973346 -0.973346 0.973346 389.53 1657.66)" r="96.0001"/>
   <circle id="_366665552" class="fil2" transform="matrix(0.989519 -0.989519 0.989519 0.989519 1657.66 1657.66)" r="96.0001"/>
   <circle id="_366665648" class="fil2" transform="matrix(-0.983536 -0.983536 0.983536 -0.983536 1657.66 389.53)" r="96.0001"/>
   <circle id="_366665480" class="fil2" transform="matrix(-0.983536 0.983536 -0.983536 -0.983536 389.53 389.53)" r="96.0001"/>
   <path id="_366664856" class="fil3" d="M764.637 363.799c13.4102,-18.991 30.4559,-35.4461 50.1945,-49.3855 55.1433,-38.9422 132.266,-58.4138 208.762,-58.4138 76.4977,0 153.619,19.4717 208.764,58.4138 19.7386,13.9382 36.7831,30.3933 50.1933,49.3855l-52.2213 36.7311c-9.0319,-12.7902 -20.8299,-24.0981 -34.7044,-33.8953 -44.0552,-31.1114 -107.732,-46.6678 -172.031,-46.6678 -64.2981,0 -127.975,15.5563 -172.031,46.6678 -13.8744,9.79843 -25.6713,21.1063 -34.7032,33.8953l-52.2225 -36.7311z"/>
   <path id="_366664760" class="fil3" d="M827.216 464.651c10.3937,-14.7201 23.563,-27.4453 38.7863,-38.1945 41.8122,-29.5276 100.015,-44.2926 157.591,-44.2926 57.5764,0 115.779,14.765 157.592,44.2926 15.2209,10.7492 28.3914,23.4744 38.7851,38.1945l-52.2213 36.7311c-6.01536,-8.51812 -13.9394,-16.0973 -23.2961,-22.7043 -30.724,-21.6969 -75.4808,-32.5453 -120.86,-32.5453 -45.378,0 -90.1347,10.8484 -120.86,32.5453 -9.3567,6.60709 -17.2795,14.1851 -23.2949,22.7043l-52.2225 -36.7311z"/>
   <path id="_366664664" class="fil3" d="M816.859 1646.66c9.0319,12.789 20.8288,24.0969 34.7032,33.8953 44.0563,31.1114 107.733,46.6678 172.031,46.6678 64.2993,0 127.976,-15.5563 172.031,-46.6678 13.8744,-9.79725 25.6725,-21.1051 34.7044,-33.8953l52.2213 36.7323c-13.4102,18.991 -30.4547,35.4473 -50.1933,49.3855 -55.1445,38.941 -132.266,58.4126 -208.764,58.4126 -76.4965,0 -153.619,-19.4717 -208.762,-58.4126 -19.7386,-13.9394 -36.7843,-30.3957 -50.1945,-49.3855l52.2225 -36.7323z"/>
   <path id="_366664592" class="fil3" d="M879.439 1545.8c6.01536,8.5193 13.9382,16.0973 23.2949,22.7043 30.7252,21.6969 75.4819,32.5465 120.86,32.5465 45.3792,0 90.1359,-10.8496 120.86,-32.5465 9.3567,-6.60709 17.2807,-14.1862 23.2961,-22.7043l52.2213 36.7323c-10.3937,14.7189 -23.5642,27.4453 -38.7851,38.1945 -41.8134,29.5264 -100.016,44.2914 -157.592,44.2914 -57.5764,0 -115.779,-14.765 -157.591,-44.2914 -15.2232,-10.7492 -28.3925,-23.4756 -38.7863,-38.1945l52.2225 -36.7323z"/>
   <path id="_366664520" class="fil3" d="M1683.39 764.637c18.9898,13.4102 35.4461,30.4559 49.3855,50.1945 38.941,55.1433 58.4126,132.266 58.4126,208.762 0,76.4977 -19.4717,153.619 -58.4126,208.764 -13.9382,19.7386 -30.3945,36.7831 -49.3855,50.1933l-36.7323 -52.2213c12.7902,-9.0319 24.0981,-20.8299 33.8953,-34.7044 31.1114,-44.0552 46.6678,-107.732 46.6678,-172.031 0,-64.2981 -15.5563,-127.975 -46.6678,-172.031 -9.79843,-13.8744 -21.1063,-25.6713 -33.8953,-34.7032l36.7323 -52.2225z"/>
   <path id="_366664328" class="fil3" d="M1582.54 827.216c14.7189,10.3937 27.4453,23.563 38.1945,38.7863 29.5264,41.8122 44.2914,100.015 44.2914,157.591 0,57.5764 -14.765,115.779 -44.2914,157.592 -10.7492,15.2209 -23.4756,28.3914 -38.1945,38.7851l-36.7323 -52.2213c8.51812,-6.01536 16.0973,-13.9394 22.7043,-23.2961 21.6969,-30.724 32.5465,-75.4808 32.5465,-120.86 0,-45.378 -10.8496,-90.1347 -32.5465,-120.86 -6.60709,-9.3567 -14.1851,-17.2795 -22.7043,-23.2949l36.7323 -52.2225z"/>
   <path id="_366665072" class="fil3" d="M400.531 816.859c-12.789,9.0319 -24.0969,20.8288 -33.8953,34.7032 -31.1114,44.0563 -46.6678,107.733 -46.6678,172.031 0,64.2993 15.5563,127.976 46.6678,172.031 9.79725,13.8744 21.1051,25.6725 33.8953,34.7044l-36.7311 52.2213c-18.9921,-13.4102 -35.4473,-30.4547 -49.3855,-50.1933 -38.9422,-55.1445 -58.4138,-132.266 -58.4138,-208.764 0,-76.4965 19.4717,-153.619 58.4138,-208.762 13.9394,-19.7386 30.3945,-36.7843 49.3855,-50.1945l36.7311 52.2225z"/>
   <path id="_366664448" class="fil3" d="M501.383 879.439c-8.5193,6.01536 -16.0973,13.9382 -22.7043,23.2949 -21.6969,30.7252 -32.5453,75.4819 -32.5453,120.86 0,45.3792 10.8484,90.1359 32.5453,120.86 6.60709,9.3567 14.1862,17.2807 22.7043,23.2961l-36.7311 52.2213c-14.7201,-10.3937 -27.4453,-23.5642 -38.1945,-38.7851 -29.5276,-41.8134 -44.2926,-100.016 -44.2926,-157.592 0,-57.5764 14.765,-115.779 44.2926,-157.591 10.7492,-15.2232 23.4744,-28.3925 38.1945,-38.7863l36.7311 52.2225z"/>
   <polygon id="_366664976" class="fil4" points="763.724,1023.59 1023.59,1283.46 1283.46,1023.59 1023.59,763.724 "/>
  </g>
 </g>
 <rect class="fil5" width="2048" height="2048"/>
</svg>
