<?xml version="1.0" encoding="UTF-8"?>
<svg version="1.1" xmlns="http://www.w3.org/2000/svg" width="16" height="16">
<path fill="#FFFFFF" d="M8 12.4999C7.42246 12.5004 6.85381 12.3577 6.34487 12.0848C5.83593 11.8118 5.40256 11.4169 5.0835 10.9355L5.9165 10.3818C6.14458 10.7256 6.4542 11.0076 6.81773 11.2027C7.18127 11.3978 7.58743 11.4999 8 11.4999C8.41257 11.4999 8.81872 11.3978 9.18226 11.2027C9.54579 11.0076 9.85541 10.7256 10.0835 10.3818L10.9165 10.9355C10.5974 11.4169 10.1641 11.8118 9.65512 12.0848C9.14618 12.3577 8.57753 12.5004 8 12.4999Z"/>
<path fill="#FFFFFF" d="M10 7.00005C9.80222 7.00005 9.60888 7.0587 9.44443 7.16858C9.27998 7.27846 9.15181 7.43464 9.07612 7.61736C9.00043 7.80009 8.98063 8.00116 9.01922 8.19514C9.0578 8.38912 9.15304 8.5673 9.29289 8.70715C9.43275 8.84701 9.61093 8.94225 9.80491 8.98083C9.99889 9.01942 10.2 8.99962 10.3827 8.92393C10.5654 8.84824 10.7216 8.72007 10.8315 8.55562C10.9414 8.39117 11 8.19783 11 8.00005C11.0013 7.86837 10.9763 7.73775 10.9265 7.61584C10.8767 7.49393 10.8031 7.38317 10.71 7.29005C10.6169 7.19693 10.5061 7.12332 10.3842 7.07353C10.2623 7.02373 10.1317 6.99875 10 7.00005Z"/>
<path fill="#FFFFFF" d="M6 7.00005C5.80222 7.00005 5.60888 7.0587 5.44443 7.16858C5.27998 7.27846 5.15181 7.43464 5.07612 7.61736C5.00043 7.80009 4.98063 8.00116 5.01922 8.19514C5.0578 8.38912 5.15304 8.5673 5.29289 8.70715C5.43275 8.84701 5.61093 8.94225 5.80491 8.98083C5.99889 9.01942 6.19996 8.99962 6.38268 8.92393C6.56541 8.84824 6.72159 8.72007 6.83147 8.55562C6.94135 8.39117 7 8.19783 7 8.00005C7.0013 7.86837 6.97632 7.73775 6.92652 7.61584C6.87672 7.49393 6.80311 7.38317 6.71 7.29005C6.61688 7.19693 6.50612 7.12332 6.38421 7.07353C6.2623 7.02373 6.13168 6.99875 6 7.00005Z"/>
<path fill="#FFFFFF" fill-rule="evenodd" clip-rule="evenodd" d="M15 7V8.5H14V10H15V11.5H14V13C13.9994 13.5303 13.7885 14.0386 13.4136 14.4136C13.0386 14.7885 12.5303 14.9994 12 15H4C3.46975 14.9994 2.96139 14.7885 2.58644 14.4136C2.2115 14.0386 2.0006 13.5303 2 13V11.5H1V10H2V8.5H1V7H2V5C2.0006 4.46975 2.2115 3.96139 2.58644 3.58644C2.96139 3.2115 3.46975 3.0006 4 3H5V1H6.5V3H9.5V1H11V3H12C12.5303 3.0006 13.0386 3.2115 13.4136 3.58644C13.7885 3.96139 13.9994 4.46975 14 5V7H15ZM4 4.5C3.72386 4.5 3.5 4.72386 3.5 5V13C3.5 13.2761 3.72386 13.5 4 13.5H12C12.2761 13.5 12.5 13.2761 12.5 13V5C12.5 4.72386 12.2761 4.5 12 4.5H4Z"/>
</svg>

