<?xml version="1.0" encoding="UTF-8"?>
<svg version="1.1" xmlns="http://www.w3.org/2000/svg" width="2880" height="532">
<path d="M0 0 C19.59004974 17.04640422 33.70209389 41.74512689 35.68359375 68 C35.73 69.17175781 35.73 69.17175781 35.77734375 70.3671875 C35.82890625 71.43710938 35.88046875 72.50703125 35.93359375 73.609375 C36.66170665 102.30915836 26.56924091 126.77816422 7.44140625 147.953125 C-4.4008669 160.40859028 -19.25684749 169.18737614 -35.66015625 174.1796875 C-36.60616699 174.47214355 -36.60616699 174.47214355 -37.57128906 174.77050781 C-57.31613497 180.34864814 -77.9952935 178.3671875 -98.22265625 178.3671875 C-98.22265625 287.5971875 -98.22265625 396.8271875 -98.22265625 509.3671875 C-120.33265625 509.3671875 -142.44265625 509.3671875 -165.22265625 509.3671875 C-165.22265625 400.1371875 -165.22265625 290.9071875 -165.22265625 178.3671875 C-235.85612895 170.39667791 -235.85612895 170.39667791 -302.9296875 194.9765625 C-313.59306731 206.09408966 -317.74547389 219.67407547 -317.46875 234.8125 C-316.45074753 249.51698006 -309.83103785 261.32458625 -299.22265625 271.3671875 C-288.80290883 279.97480493 -277.58029573 282.45895329 -264.22265625 284.3671875 C-264.22265625 306.8071875 -264.22265625 329.2471875 -264.22265625 352.3671875 C-301.97558945 350.14642672 -330.98207336 337.96565901 -356.91015625 310.5546875 C-375.98601376 288.71921227 -385.92975015 260.41432402 -385.66015625 231.6171875 C-385.65711487 230.92230225 -385.65407349 230.22741699 -385.65093994 229.51147461 C-385.57735474 218.0949761 -384.6457929 207.3081093 -381.22265625 196.3671875 C-381.01366699 195.68350098 -380.80467773 194.99981445 -380.58935547 194.29541016 C-370.89271269 163.57847959 -348.68577086 138.13464975 -320.30761719 123.20507812 C-315.04853936 120.59555092 -309.63626581 118.4918825 -304.09765625 116.5546875 C-303.3305835 116.27665283 -302.56351074 115.99861816 -301.77319336 115.7121582 C-284.06719842 109.87648113 -265.18725859 109.94377954 -246.765625 110.07421875 C-244.39667534 110.07983135 -242.02772213 110.08409355 -239.6587677 110.08708191 C-233.49893147 110.09839986 -227.33931595 110.12775078 -221.17956543 110.16119385 C-214.86388126 110.19218015 -208.54816055 110.20564756 -202.23242188 110.22070312 C-189.89573769 110.25263617 -177.5592155 110.3036695 -165.22265625 110.3671875 C-165.24622192 108.39480103 -165.24622192 108.39480103 -165.27026367 106.38256836 C-165.32517648 101.4343902 -165.35922623 96.48623811 -165.38745117 91.5378418 C-165.40239962 89.40921477 -165.4227658 87.28061778 -165.44897461 85.15209961 C-165.78590883 57.05442836 -160.1695266 31.29338952 -140.20703125 10.3671875 C-139.5521875 9.7071875 -138.89734375 9.0471875 -138.22265625 8.3671875 C-137.39765625 7.5009375 -136.57265625 6.6346875 -135.72265625 5.7421875 C-134.89765625 4.9584375 -134.07265625 4.1746875 -133.22265625 3.3671875 C-132.63742188 2.78710938 -132.0521875 2.20703125 -131.44921875 1.609375 C-95.87390392 -32.11443646 -36.81566196 -30.77163553 0 0 Z M-90.22265625 55.3671875 C-96.38912417 63.59796657 -98.54920635 71.25497717 -98.41796875 81.36328125 C-98.41513885 82.19682632 -98.41230896 83.0303714 -98.40939331 83.88917542 C-98.39827914 86.5278311 -98.3731914 89.16613598 -98.34765625 91.8046875 C-98.3376151 93.60351069 -98.32849124 95.40233925 -98.3203125 97.20117188 C-98.2983686 101.58997705 -98.26390012 105.97852298 -98.22265625 110.3671875 C-92.70919944 110.4668052 -87.19627797 110.5390066 -81.68212891 110.58691406 C-79.81029116 110.60690613 -77.93851487 110.63410918 -76.06689453 110.66894531 C-62.59055188 110.91331633 -52.15132112 110.83317575 -41.90234375 101.078125 C-35.10681466 94.15616746 -32.01969316 87.11636322 -31.72265625 77.3671875 C-32.09710513 66.88261896 -35.50916839 60.14109788 -42.7109375 52.5703125 C-49.90958911 46.25609865 -57.82501336 43.96866696 -67.21875 44.09375 C-76.14189555 44.90599992 -83.99286735 48.99195605 -90.22265625 55.3671875 Z " fill="#FFFFFF" transform="translate(385.22265625,22.6328125)"/>
<path d="M0 0 C33.969375 -0.04125 67.93875 -0.0825 102.9375 -0.125 C118.99394165 -0.15231201 118.99394165 -0.15231201 135.37475586 -0.18017578 C148.50109863 -0.18920898 148.50109863 -0.18920898 154.65675354 -0.19088745 C158.93269449 -0.19274188 163.20858518 -0.20020139 167.48451233 -0.21115112 C172.9565099 -0.22497584 178.4284355 -0.22896275 183.90044892 -0.22614455 C185.89755473 -0.22673295 187.89466334 -0.23063525 189.89175403 -0.23843026 C205.04161566 -0.29476576 220.13411081 0.16461811 234.8125 4.3125 C235.60817383 4.53123779 236.40384766 4.74997559 237.22363281 4.9753418 C243.72550836 6.81595598 249.91361728 9.04536712 256 12 C256.58201172 12.28214355 257.16402344 12.56428711 257.76367188 12.85498047 C289.79116107 28.59377524 315.0117567 56.88121184 326.8125 90.5625 C337.80198926 125.60306003 334.70868998 163.32911094 318 196 C311.99491916 207.11794772 304.5540895 216.74211157 296 226 C295.18917969 226.89332031 294.37835937 227.78664063 293.54296875 228.70703125 C282.76681744 240.05505129 269.92545131 248.09781979 256 255 C254.66645922 255.66625162 253.33308059 256.33282808 252 257 C259.80464627 270.68328977 267.61829537 284.36090282 275.5 298 C280.69233783 306.98544844 285.85666165 315.986453 291 325 C296.1667646 334.05367267 301.35106225 343.09693644 306.5625 352.125 C307.16940674 353.17671387 307.77631348 354.22842773 308.40161133 355.31201172 C311.292842 360.31979659 314.1876855 365.32544985 317.08979797 370.32693481 C318.12369475 372.10928179 319.15660904 373.89219441 320.18920898 375.67529297 C321.48360493 377.90984577 322.77987301 380.14331559 324.07836914 382.37548828 C324.66481201 383.38853027 325.25125488 384.40157227 325.85546875 385.4453125 C326.36746826 386.32719238 326.87946777 387.20907227 327.40698242 388.11767578 C329.38246766 391.69201735 331.19827523 395.33570058 333 399 C323.00422452 399.39513181 313.01032349 399.69652983 303.00831032 399.88080692 C298.36258547 399.9692949 293.72222515 400.08907881 289.07958984 400.2824707 C284.59218963 400.46821058 280.10991744 400.56900919 275.61896896 400.61291313 C273.91268441 400.64415853 272.2066601 400.70519944 270.50258255 400.79741096 C259.66570963 401.36010133 259.66570963 401.36010133 255 399 C250.74549187 394.82453056 248.30306824 389.44278698 245.93043709 384.05121231 C244.65575743 381.24109368 243.09464637 378.63516822 241.48828125 376.00390625 C240.42919814 374.19038986 239.37060836 372.37658529 238.3125 370.5625 C237.72855469 369.56154297 237.14460938 368.56058594 236.54296875 367.52929688 C231.53712329 358.93947908 226.56910511 350.32809311 221.60668945 341.71313477 C217.42738668 334.46191205 213.22294864 327.22588134 209 320 C204.01717671 311.47238745 199.06031299 302.93020188 194.125 294.375 C193.53074219 293.34503906 192.93648437 292.31507813 192.32421875 291.25390625 C191.74542969 290.24972656 191.16664063 289.24554688 190.5703125 288.2109375 C189.99954987 287.2737085 189.42878723 286.33647949 188.84072876 285.37084961 C187 282 187 282 185.79013062 278.38671875 C184.13623134 274.14489307 182.68991131 270.78623257 179 268 C171.03718849 265.29683733 161.99838679 266.2333813 153.71875 266.4140625 C151.50292269 266.41477283 149.28708415 266.40918867 147.07128906 266.3972168 C138.88050745 266.39693408 130.69008622 266.51827017 122.5 266.625 C95.0275 266.810625 95.0275 266.810625 67 267 C67 310.56 67 354.12 67 399 C44.89 399 22.78 399 0 399 C0 267.33 0 135.66 0 0 Z M67 68 C67 111.23 67 154.46 67 199 C92.25192822 199.11663904 92.25192822 199.11663904 117.50390625 199.1953125 C127.80948904 199.21899816 138.11494051 199.24676231 148.42041016 199.30175781 C155.92761303 199.34180094 163.43470881 199.36747412 170.94201553 199.37635398 C174.91200077 199.38153937 178.88167983 199.39360589 182.85156631 199.42292023 C186.59938476 199.45036672 190.34677519 199.45838707 194.0946846 199.45243073 C196.10307572 199.4540308 198.11142179 199.47539882 200.11968994 199.49768066 C219.0387608 199.41316455 233.7536778 192.2463222 247 179 C247.64839844 178.35160156 248.29679687 177.70320313 248.96484375 177.03515625 C262.66508962 162.37559338 265.68205807 144.71766715 265.12304688 125.48291016 C264.31030298 109.08289948 254.67766804 94.87673059 243 84 C228.42469757 71.49781751 213.59194565 67.66851645 194.82958984 67.77294922 C193.42911792 67.77351452 192.02864541 67.77319446 190.62817383 67.77206421 C186.85610604 67.77149432 183.08416747 67.78318918 179.3121295 67.79721212 C175.3590229 67.80978062 171.4059128 67.81089478 167.45278931 67.81326294 C159.98032491 67.81945982 152.50791958 67.8358462 145.0354811 67.85596192 C134.92855578 67.88257454 124.82161411 67.89330805 114.71466255 67.90496635 C98.80973086 67.92372823 82.90492376 67.96358578 67 68 Z " fill="#FFFFFF" transform="translate(1077,133)"/>
<path d="M0 0 C157.42699115 0 157.42699115 0 175.375 4.125 C176.31577393 4.33745361 177.25654785 4.54990723 178.22583008 4.76879883 C211.46629775 12.63275811 241.71758784 28.84954387 266.79296875 51.98046875 C268.71482152 53.73904907 270.67647489 55.40819775 272.6875 57.0625 C276.55057497 60.36090276 279.72824286 64.1275687 283 68 C284.2375 69.38832031 284.2375 69.38832031 285.5 70.8046875 C292.98813603 79.27376665 299.14470453 88.34285167 305 98 C305.40492676 98.66402832 305.80985352 99.32805664 306.22705078 100.01220703 C332.54332422 143.61923875 339.75689415 197.36857853 328.05078125 246.76196289 C319.93538193 278.92030617 304.03616159 308.30523713 282 333 C281.53029785 333.53141602 281.0605957 334.06283203 280.57666016 334.61035156 C275.06644231 340.82883812 269.47483317 346.76645609 263 352 C261.49373047 353.24523437 261.49373047 353.24523437 259.95703125 354.515625 C184.44203265 416.08720932 96.24511471 399 0 399 C0 267.33 0 135.66 0 0 Z M67 68 C67 155.12 67 242.24 67 332 C120.25235168 334.85067849 120.25235168 334.85067849 174.5 325.9375 C175.36036865 325.64149902 176.2207373 325.34549805 177.10717773 325.04052734 C195.95777632 318.27382257 211.480963 307.67807063 226 294 C226.66386719 293.40058594 227.32773438 292.80117188 228.01171875 292.18359375 C244.86833865 276.35273166 256.02134001 254.0851911 262 232 C262.33773437 230.82824219 262.67546875 229.65648437 263.0234375 228.44921875 C270.78854427 195.85714216 263.56882748 160.60501649 247 132 C241.0615037 122.40916553 233.799 114.10317316 226 106 C225.43152344 105.36835938 224.86304687 104.73671875 224.27734375 104.0859375 C211.1244559 89.89023757 192.46195883 80.23527242 174.375 74.0625 C173.19719971 73.65692871 173.19719971 73.65692871 171.99560547 73.24316406 C138.45531103 62.51842554 100.69314257 68 67 68 Z " fill="#FFFFFF" transform="translate(2545,133)"/>
<path d="M0 0 C22.11 0 44.22 0 67 0 C67 54.78 67 109.56 67 166 C132.34 166 197.68 166 265 166 C265 111.22 265 56.44 265 0 C287.44 0 309.88 0 333 0 C333 131.67 333 263.34 333 399 C310.56 399 288.12 399 265 399 C265 344.55 265 290.1 265 234 C199.66 234 134.32 234 67 234 C67 288.45 67 342.9 67 399 C44.89 399 22.78 399 0 399 C0 267.33 0 135.66 0 0 Z " fill="#FFFFFF" transform="translate(563,133)"/>
<path d="M0 0 C88.11 0 176.22 0 267 0 C267 22.44 267 44.88 267 68 C201 68 135 68 67 68 C67 100.67 67 133.34 67 167 C133 167 199 167 267 167 C267 189.11 267 211.22 267 234 C201 234 135 234 67 234 C67 266.34 67 298.68 67 332 C133 332 199 332 267 332 C267 354.11 267 376.22 267 399 C178.89 399 90.78 399 0 399 C0 267.33 0 135.66 0 0 Z " fill="#FFFFFF" transform="translate(1591,133)"/>
<path d="M0 0 C2.28342047 2.10233074 3.71438441 4.05723252 5.09375 6.83105469 C5.47886749 7.59832886 5.86398499 8.36560303 6.26077271 9.15612793 C6.66971771 9.98632446 7.07866272 10.816521 7.5 11.671875 C7.93206757 12.53752075 8.36413513 13.4031665 8.80929565 14.29504395 C10.21228146 17.11038283 11.60633643 19.93003631 13 22.75 C13.96467521 24.6912454 14.9296825 26.63232581 15.89501953 28.57324219 C21.05066267 38.95538289 26.14896543 49.36114691 31.09960938 59.84277344 C35.09412044 68.27668187 39.28746793 76.60861272 43.47814941 84.94604492 C48.07103213 94.08797523 52.55603609 103.27412079 56.9375 112.51953125 C60.36425849 119.72789009 63.913885 126.8697374 67.5 134 C71.54559684 142.04384907 75.51906717 150.11352269 79.375 158.25 C83.63085962 167.22759736 88.03834978 176.123563 92.5 185 C97.39729774 194.74319473 102.1982162 204.52374227 106.8671875 214.37890625 C110.76539629 222.57779377 114.8277738 230.69144871 118.90603638 238.80181885 C123.31693622 247.57829138 127.60949281 256.40163023 131.81640625 265.27734375 C135.44391521 272.90251566 139.20664056 280.45622481 143 288 C147.71479585 297.37621665 152.32145779 306.79393617 156.81640625 316.27734375 C160.44391521 323.90251566 164.20664056 331.45622481 168 339 C172.70770227 348.36210981 177.31239358 357.76346097 181.79443359 367.2355957 C184.38742598 372.69294013 187.04260753 378.11443346 189.7578125 383.51171875 C190.0788092 384.15017731 190.39980591 384.78863586 190.73052979 385.44644165 C192.31201119 388.58867008 193.89937826 391.72777335 195.49414062 394.86328125 C196.06583984 395.99507812 196.63753906 397.126875 197.2265625 398.29296875 C197.73783691 399.2986792 198.24911133 400.30438965 198.77587891 401.34057617 C200 404 200 404 201 408 C175.92 408 150.84 408 125 408 C119.72 397.48125 114.44 386.9625 109 376.125 C107.329375 372.80195801 105.65875 369.47891602 103.9375 366.05517578 C101.90625 362.00170898 101.90625 362.00170898 100.95703125 360.10494995 C100.29183504 358.77763322 99.62505222 357.45111093 98.95703125 356.12521362 C97.94680009 354.11933323 96.94159672 352.11100735 95.9375 350.10205078 C95.08478516 348.40328293 95.08478516 348.40328293 94.21484375 346.67019653 C93 344 93 344 93 342 C1.92 342.495 1.92 342.495 -91 343 C-99.91 360.82 -108.82 378.64 -118 397 C-119.98 400.63 -121.96 404.26 -124 408 C-149.08 408 -174.16 408 -200 408 C-189.67486593 385.05525763 -189.67486593 385.05525763 -185.9140625 377.66796875 C-185.49039398 376.82619583 -185.06672546 375.98442291 -184.63021851 375.11714172 C-183.74691914 373.36269868 -182.86188981 371.6091255 -181.97509766 369.85644531 C-179.65358156 365.26714804 -177.34627228 360.67072092 -175.0390625 356.07421875 C-174.59210022 355.18423187 -174.14513794 354.294245 -173.68463135 353.37728882 C-169.94578743 345.91997687 -166.32190012 338.41452119 -162.75830078 330.87182617 C-158.90897911 322.74505494 -154.87202574 314.71628006 -150.83178711 306.68310547 C-147.3280324 299.70050795 -143.90936447 292.68402092 -140.5625 285.625 C-136.19766182 276.42032655 -131.67193197 267.30223599 -127.09552002 258.20129395 C-122.66058357 249.37705229 -118.34416699 240.50558082 -114.11328125 231.58203125 C-110.13758077 223.22376036 -105.99208418 214.9549614 -101.83349609 206.68652344 C-98.32918001 199.70278135 -94.90991067 192.68517295 -91.5625 185.625 C-87.19766182 176.42032655 -82.67193197 167.30223599 -78.09552002 158.20129395 C-73.66058357 149.37705229 -69.34416699 140.50558082 -65.11328125 131.58203125 C-61.13758077 123.22376036 -56.99208418 114.9549614 -52.83349609 106.68652344 C-49.32918001 99.70278135 -45.90991067 92.68517295 -42.5625 85.625 C-38.19830544 76.42168382 -33.67331825 67.30489989 -29.09753418 58.20532227 C-25.08314839 50.2179642 -21.14576872 42.20080789 -17.3125 34.125 C-13.57533702 26.25328026 -9.76588217 18.42199532 -5.875 10.625 C-5.16404175 9.19631592 -5.16404175 9.19631592 -4.4387207 7.73876953 C-4.00261475 6.86849121 -3.56650879 5.99821289 -3.1171875 5.1015625 C-2.53880127 3.94648193 -2.53880127 3.94648193 -1.94873047 2.76806641 C-1 1 -1 1 0 0 Z M0 151 C-8.27723154 168.05809873 -16.37714408 185.18676667 -24.33203125 202.39794922 C-26.89697565 207.93705778 -29.47857864 213.46834833 -32.06164551 218.99902344 C-32.93339688 220.86621161 -33.80421687 222.73383156 -34.67480469 224.6015625 C-37.40841305 230.46403774 -40.1491872 236.3229134 -42.91148376 242.17193604 C-44.19722769 244.89558365 -45.47926957 247.6209663 -46.76101685 250.34649658 C-47.36941902 251.63753005 -47.9796131 252.92772089 -48.59176636 254.21697998 C-49.44468094 256.01357183 -50.29080785 257.81338117 -51.13671875 259.61328125 C-51.61842529 260.63204346 -52.10013184 261.65080566 -52.59643555 262.70043945 C-54.301022 266.70765565 -55.62292351 270.86877053 -57 275 C-19.05 275 18.9 275 58 275 C55.98776169 268.96328507 53.96978303 263.457779 51.2265625 257.79296875 C50.86673279 257.03863052 50.50690308 256.2842923 50.13616943 255.50709534 C49.36816981 253.89838211 48.59785264 252.2907735 47.82537842 250.6842041 C45.7742992 246.41810115 43.74031885 242.14383966 41.703125 237.87109375 C41.29641571 237.01943634 40.88970642 236.16777893 40.47067261 235.29031372 C37.05495643 228.13320906 33.70047754 220.94953129 30.375 213.75 C24.84978431 201.80225099 19.25571316 189.8878581 13.64208984 177.98144531 C13.00355006 176.62696759 12.36504044 175.27247563 11.7265625 173.91796875 C11.26514359 172.93910202 11.26514359 172.93910202 10.79440308 171.94046021 C7.51059744 164.96917596 4.2534764 157.98547919 1 151 C0.67 151 0.34 151 0 151 Z " fill="#FFFFFF" transform="translate(2205,124)"/>
</svg>
